<?xml version="1.0" standalone="no"?>
<!DOCTYPE svg PUBLIC "-//W3C//DTD SVG 20010904//EN"
 "http://www.w3.org/TR/2001/REC-SVG-20010904/DTD/svg10.dtd">
<svg version="1.0" xmlns="http://www.w3.org/2000/svg"
 width="619.000000pt" height="130.000000pt" viewBox="0 0 619.000000 130.000000"
 preserveAspectRatio="xMidYMid meet">

<g transform="translate(0.000000,130.000000) scale(0.100000,-0.100000)"
fill="#000000" stroke="none">
<path d="M147 1231 c-112 -23 -149 -163 -62 -239 37 -33 104 -47 180 -39 22 2
46 2 53 0 9 -4 12 -87 12 -370 0 -395 3 -423 51 -469 41 -39 120 -45 169 -12
70 47 70 49 70 471 0 352 1 377 18 377 93 1 176 11 204 24 68 33 97 129 58
193 -41 68 -39 68 -395 70 -176 0 -337 -2 -358 -6z"/>
<path d="M5629 1227 c-151 -43 -269 -185 -277 -337 -5 -81 9 -134 51 -197 42
-62 114 -105 242 -144 128 -39 167 -58 182 -91 28 -58 -25 -112 -111 -112 -40
-1 -71 8 -134 38 -88 41 -103 41 -160 6 -101 -62 -92 -171 21 -247 88 -59 150
-77 268 -77 l107 -1 88 45 c68 35 98 57 130 97 58 71 87 150 86 238 0 179
-113 306 -307 344 -95 19 -154 41 -165 61 -18 33 -11 68 17 90 35 27 105 24
180 -10 46 -21 56 -22 92 -11 106 31 145 136 83 221 -10 14 -49 40 -85 59 -59
31 -76 34 -164 37 -61 3 -115 -1 -144 -9z"/>
<path d="M1562 1200 c-244 -64 -422 -300 -422 -559 1 -107 12 -156 57 -251 47
-97 158 -211 253 -258 228 -112 474 -70 655 112 121 122 173 262 162 434 -7
110 -35 193 -99 288 -137 205 -371 295 -606 234z m229 -281 c67 -23 126 -76
160 -144 29 -58 31 -70 27 -142 -4 -91 -25 -140 -81 -196 -53 -53 -114 -77
-195 -77 -157 1 -271 114 -273 272 -1 35 4 81 10 104 21 79 91 151 176 182 40
14 134 15 176 1z"/>
<path d="M4482 1204 c-18 -10 -44 -31 -57 -48 -13 -17 -86 -173 -163 -346 -77
-173 -167 -374 -201 -447 -33 -72 -61 -145 -61 -161 0 -40 38 -94 83 -116 84
-41 153 6 225 154 l47 95 180 3 180 2 52 -109 c40 -87 58 -114 84 -130 65 -40
151 -20 189 42 26 42 25 90 -4 157 -50 116 -328 748 -354 804 -45 97 -126 138
-200 100z m118 -591 c0 -9 -20 -13 -71 -13 -81 0 -81 -2 -26 104 l31 60 33
-69 c18 -38 33 -75 33 -82z"/>
<path d="M2638 1192 c-58 -35 -58 -38 -58 -536 0 -492 0 -496 53 -545 36 -33
110 -39 157 -13 67 37 74 63 80 282 l5 194 51 -69 c28 -39 66 -92 83 -118 77
-114 170 -114 249 -1 20 29 57 82 82 118 24 35 48 62 52 60 5 -3 8 -89 8 -192
0 -169 2 -190 20 -220 57 -93 190 -94 245 -1 19 33 20 52 20 511 l0 478 -30
30 c-40 40 -89 48 -131 22 -17 -11 -65 -69 -107 -128 -185 -264 -267 -374
-277 -374 -9 0 -284 364 -319 422 -53 88 -122 119 -183 80z"/>
</g>
</svg>
